<svg width="19" height="19" viewBox="0 0 19 19" fill="none" xmlns="http://www.w3.org/2000/svg">
<path d="M12.7804 8.1875V4.25C12.7804 3.37976 12.4346 2.54516 11.8193 1.92981C11.2039 1.31445 10.3693 0.96875 9.4991 0.96875C8.62886 0.96875 7.79426 1.31445 7.17891 1.92981C6.56355 2.54516 6.21785 3.37976 6.21785 4.25V8.1875M16.1544 6.44362L17.2595 16.9436C17.3207 17.5255 16.8657 18.0312 16.2804 18.0312H2.71785C2.57978 18.0314 2.44323 18.0025 2.31706 17.9464C2.19089 17.8904 2.07792 17.8084 1.9855 17.7058C1.89308 17.6032 1.82326 17.4824 1.7806 17.3511C1.73793 17.2197 1.72337 17.0809 1.73785 16.9436L2.84385 6.44362C2.86936 6.20174 2.98352 5.97786 3.16432 5.81516C3.34512 5.65246 3.57975 5.56246 3.82298 5.5625H15.1752C15.6792 5.5625 16.1019 5.94312 16.1544 6.44362ZM6.54598 8.1875C6.54598 8.27452 6.51141 8.35798 6.44987 8.41952C6.38834 8.48106 6.30488 8.51562 6.21785 8.51562C6.13083 8.51562 6.04737 8.48106 5.98583 8.41952C5.9243 8.35798 5.88973 8.27452 5.88973 8.1875C5.88973 8.10048 5.9243 8.01702 5.98583 7.95548C6.04737 7.89394 6.13083 7.85938 6.21785 7.85938C6.30488 7.85938 6.38834 7.89394 6.44987 7.95548C6.51141 8.01702 6.54598 8.10048 6.54598 8.1875ZM13.1085 8.1875C13.1085 8.27452 13.0739 8.35798 13.0124 8.41952C12.9508 8.48106 12.8674 8.51562 12.7804 8.51562C12.6933 8.51562 12.6099 8.48106 12.5483 8.41952C12.4868 8.35798 12.4522 8.27452 12.4522 8.1875C12.4522 8.10048 12.4868 8.01702 12.5483 7.95548C12.6099 7.89394 12.6933 7.85938 12.7804 7.85938C12.8674 7.85938 12.9508 7.89394 13.0124 7.95548C13.0739 8.01702 13.1085 8.10048 13.1085 8.1875Z" stroke="white" stroke-width="1.5" stroke-linecap="round" stroke-linejoin="round"/>
</svg>
