<?xml version="1.0" encoding="utf-8"?>
<!-- Generator: Adobe Illustrator 26.0.1, SVG Export Plug-In . SVG Version: 6.00 Build 0)  -->
<svg version="1.1" id="Layer_1" xmlns="http://www.w3.org/2000/svg" xmlns:xlink="http://www.w3.org/1999/xlink" x="0px" y="0px"
	 viewBox="0 0 24.3 29" style="enable-background:new 0 0 24.3 29;" xml:space="preserve">
<style type="text/css">
	.st0{fill-rule:evenodd;clip-rule:evenodd;fill:#333333;}
</style>
<path class="st0" d="M8.2,1.5c-3.7,0-6.8,3-6.8,6.8c0,1.9,0.7,3.6,1.9,4.8c1.1,1.1,2.8,1.9,4.9,2L7.8,6.8l6.6,4.4
	c0.4-0.9,0.7-1.9,0.7-2.9C15,4.5,12,1.5,8.2,1.5z M2.3,14.1c1.5,1.4,3.5,2.3,6,2.4L9,26.6l4.4-4.9l4.2,7.2l4.7-2.7l-4.2-7.2l6.2-1.3
	L15.6,12c0.6-1.1,0.9-2.4,0.9-3.7c0-4.6-3.7-8.2-8.2-8.2S0,3.7,0,8.2C0,10.5,0.8,12.6,2.3,14.1z M20.4,25.8L18,27.2l-4.4-7.7
	l-3.5,3.9l-0.9-14l11.7,7.8l-4.9,1L20.4,25.8z M4.3,12c0.1,0.1,0.3,0.2,0.5,0.2l0,0c0.2,0,0.3-0.1,0.5-0.2c0.3-0.2,0.3-0.7,0-0.9
	C3.8,9.4,3.9,6.9,5.5,5.3c1.5-1.5,4.1-1.4,5.6,0.2c0.3,0.3,0.7,0.3,0.9,0c0.3-0.2,0.3-0.7,0-0.9c-1.9-2.1-5.4-2.2-7.5-0.2
	C2.5,6.4,2.4,9.8,4.3,12z"/>
</svg>
