<svg width="19" height="23" viewBox="0 0 19 23" fill="none" xmlns="http://www.w3.org/2000/svg">
<path d="M11.6245 1.19043H3.62451C3.09408 1.19043 2.58537 1.40114 2.2103 1.77622C1.83523 2.15129 1.62451 2.66 1.62451 3.19043V19.1904C1.62451 19.7209 1.83523 20.2296 2.2103 20.6046C2.58537 20.9797 3.09408 21.1904 3.62451 21.1904H15.6245C16.1549 21.1904 16.6637 20.9797 17.0387 20.6046C17.4138 20.2296 17.6245 19.7209 17.6245 19.1904V7.19043L11.6245 1.19043Z" stroke="#535353" stroke-width="2" stroke-linecap="round" stroke-linejoin="round"/>
<path d="M11.6245 1.19043V7.19043H17.6245" stroke="#535353" stroke-width="2" stroke-linecap="round" stroke-linejoin="round"/>
<path d="M13.6245 12.1904H5.62451" stroke="#535353" stroke-width="2" stroke-linecap="round" stroke-linejoin="round"/>
<path d="M13.6245 16.1904H5.62451" stroke="#535353" stroke-width="2" stroke-linecap="round" stroke-linejoin="round"/>
<path d="M7.62451 8.19043H6.62451H5.62451" stroke="#535353" stroke-width="2" stroke-linecap="round" stroke-linejoin="round"/>
</svg>
