<?xml version="1.0" encoding="utf-8"?>
<!-- Generator: Adobe Illustrator 26.0.1, SVG Export Plug-In . SVG Version: 6.00 Build 0)  -->
<svg version="1.1" id="Layer_1" xmlns="http://www.w3.org/2000/svg" xmlns:xlink="http://www.w3.org/1999/xlink" x="0px" y="0px"
	 viewBox="0 0 37.5 32" style="enable-background:new 0 0 37.5 32;" xml:space="preserve">
<style type="text/css">
	.st0{fill:#333333;}
</style>
<path class="st0" d="M5,12.3c-0.2,0-0.3-0.1-0.5-0.2c-2.1-2.1-2.1-5.5,0-7.6c2-2,5.5-2,7.5,0c0.3,0.3,0.3,0.7,0,0.9
	c-0.3,0.3-0.7,0.3-0.9,0C9.6,3.9,7,3.9,5.5,5.4c-1.5,1.6-1.5,4.2,0,5.8c0.3,0.3,0.3,0.7,0,0.9C5.4,12.3,5.2,12.3,5,12.3L5,12.3z"/>
<path class="st0" d="M34.2,10.9c0,0-6.2-6.5-6.2-6.5c-1.1-1.2-3.1-1.2-4.2,0c-0.5,0.5-0.7,1.1-0.8,1.7c-1.1-0.8-2.8-0.6-3.8,0.4
	c-0.5,0.5-0.7,1.1-0.8,1.7c-0.5-0.3-1.2-0.5-1.8-0.5C16.3,3.5,12.7,0,8.3,0C3.7,0,0,3.7,0,8.3s3.7,8.3,8.3,8.3
	c1.2,0,2.4-0.3,3.6-0.8l3.2,3.3c-0.1,0-0.2,0-0.4,0c-1.4,0-2.8,0.6-3.8,1.7c-0.2,0.3-0.2,0.7,0,0.9l6.5,6.8c2.2,2.3,5.1,3.5,8.2,3.5
	c3.2,0,6.2-1.3,8.5-3.7C38.6,23.5,38.7,15.6,34.2,10.9z M8.3,15.3c-3.8,0-7-3.1-7-7c0-3.8,3.1-7,7-7c3.8,0,6.9,3.1,6.9,6.8
	c-0.2,0.1-0.5,0.3-0.7,0.5c-0.4,0.5-0.7,1-0.8,1.6L10,6.3C9.5,5.8,8.9,5.6,8.2,5.6h0c-0.7,0-1.3,0.3-1.8,0.8c-1,1-1,2.7,0,3.7
	l4.5,4.7C10.1,15.1,9.2,15.3,8.3,15.3z M33.1,27.4c-1.9,2-4.6,3.2-7.4,3.3c-2.8,0-5.5-1.1-7.4-3.1l-6-6.3c1.5-1.2,3.8-1,5.1,0.4
	c0,0,1.9,2,1.9,2c0.6,0.6,1.6-0.3,1-0.9L7.3,9.1c-0.5-0.5-0.5-1.3,0-1.8c0.4-0.5,1.2-0.5,1.6,0c0,0,10.7,11.2,10.7,11.2
	c0.6,0.6,1.6-0.3,1-0.9l-5.2-5.4c-0.6-0.7-0.6-1.8,0-2.5c0.6-0.7,1.7-0.7,2.3,0c0,0,4.8,5.1,4.9,5.1c0.6,0.6,1.6-0.3,1-0.9L20.1,10
	c-0.6-0.7-0.6-1.8,0-2.5c0.6-0.7,1.7-0.7,2.3,0c0,0,3.6,3.7,3.6,3.7c0.6,0.6,1.6-0.3,1-0.9l-2.3-2.4c-0.6-0.7-0.6-1.8,0-2.5
	c0.6-0.7,1.7-0.7,2.3,0c0,0,6.1,6.4,6.2,6.5C37.3,16.1,37.2,23,33.1,27.4z"/>
</svg>
