<svg width="8" height="11" viewBox="0 0 8 11" fill="none" xmlns="http://www.w3.org/2000/svg">
<path d="M1.13826 10.8638L7.80449 6.31864C7.86647 6.27643 7.91564 6.2263 7.94919 6.17112C7.98273 6.11594 8 6.0568 8 5.99707C8 5.93734 7.98273 5.8782 7.94919 5.82302C7.91564 5.76784 7.86647 5.71771 7.80449 5.6755L1.13826 1.13037C1.04503 1.06674 0.926201 1.02339 0.796819 1.00582C0.667438 0.988256 0.53332 0.997258 0.411446 1.03169C0.289572 1.06612 0.185422 1.12443 0.112179 1.19924C0.0389369 1.27405 -0.000103628 1.36199 1.86637e-07 1.45194L-2.10711e-07 10.5422C-0.000104033 10.6321 0.0389365 10.7201 0.112179 10.7949C0.185421 10.8697 0.289572 10.928 0.411446 10.9625C0.53332 10.9969 0.667437 11.0059 0.796819 10.9883C0.9262 10.9707 1.04503 10.9274 1.13826 10.8638Z" fill="#535353"/>
</svg>
