<svg xmlns="http://www.w3.org/2000/svg" id="Line" height="512" viewBox="0 0 32 32" width="512"><g fill="rgb(0,0,0)"><path d="m15.99658 30a2.95335 2.95335 0 0 1 -1.373-.33594c-10.50883-5.51269-10.5518-16.41992-10.3145-19.63086a3.02869 3.02869 0 0 1 1.45459-2.36035l8.60889-5.23047a3.02651 3.02651 0 0 1 3.1748.00879l8.72119 5.36524a3.0241 3.0241 0 0 1 1.44825 2.41894c.5398 13.0621-8.03298 19.07581-11.72022 19.76465zm-.04394-26.001a1.04472 1.04472 0 0 0 -.54151.15235l-8.60986 5.23049a1.03194 1.03194 0 0 0 -.49805.79882c-.21435 2.9043-.18066 12.76563 9.24951 17.71192a.99425.99425 0 0 0 .917-.00684c2.96386-1.49121 9.79736-6.18554 9.249-17.55371a1.036 1.036 0 0 0 -.49854-.8125l-8.72068-5.36523a1.04378 1.04378 0 0 0 -.54687-.1553z"></path><path d="m14.03906 20.30664a1.0005 1.0005 0 0 1 -.75537-.34473l-2.49951-2.88086a1.00017 1.00017 0 0 1 1.51082-1.31049l1.79488 2.06831 5.68012-5.70215a1.00043 1.00043 0 0 1 1.417 1.41215l-6.4394 6.46383a1.00039 1.00039 0 0 1 -.70854.29394z"></path></g></svg>